<mxfile host="app.diagrams.net" agent="Mozilla/5.0 (Windows NT 10.0; Win64; x64) AppleWebKit/537.36 (KHTML, like Gecko) Chrome/139.0.0.0 Safari/537.36" version="28.1.1" pages="8">
  <diagram name="bài tập 1" id="qfQHDTDdqqyZAAW1UHXh">
    <mxGraphModel dx="1042" dy="562" grid="1" gridSize="10" guides="1" tooltips="1" connect="1" arrows="1" fold="1" page="1" pageScale="1" pageWidth="827" pageHeight="1169" math="0" shadow="0">
      <root>
        <mxCell id="0" />
        <mxCell id="1" parent="0" />
        <mxCell id="jrlwLxBhyXgjItxjllFj-3" value="" style="edgeStyle=orthogonalEdgeStyle;rounded=0;orthogonalLoop=1;jettySize=auto;html=1;" parent="1" edge="1">
          <mxGeometry relative="1" as="geometry">
            <mxPoint x="400" y="140" as="sourcePoint" />
            <mxPoint x="400" y="220" as="targetPoint" />
          </mxGeometry>
        </mxCell>
        <mxCell id="jrlwLxBhyXgjItxjllFj-5" value="" style="edgeStyle=orthogonalEdgeStyle;rounded=0;orthogonalLoop=1;jettySize=auto;html=1;" parent="1" edge="1">
          <mxGeometry relative="1" as="geometry">
            <mxPoint x="400" y="280" as="sourcePoint" />
            <mxPoint x="400" y="360" as="targetPoint" />
          </mxGeometry>
        </mxCell>
        <mxCell id="jrlwLxBhyXgjItxjllFj-7" value="" style="edgeStyle=orthogonalEdgeStyle;rounded=0;orthogonalLoop=1;jettySize=auto;html=1;" parent="1" edge="1">
          <mxGeometry relative="1" as="geometry">
            <mxPoint x="400" y="420" as="sourcePoint" />
            <mxPoint x="400" y="500" as="targetPoint" />
          </mxGeometry>
        </mxCell>
        <mxCell id="jrlwLxBhyXgjItxjllFj-9" value="" style="edgeStyle=orthogonalEdgeStyle;rounded=0;orthogonalLoop=1;jettySize=auto;html=1;" parent="1" edge="1">
          <mxGeometry relative="1" as="geometry">
            <mxPoint x="400" y="560" as="sourcePoint" />
            <mxPoint x="400" y="640" as="targetPoint" />
          </mxGeometry>
        </mxCell>
        <mxCell id="jrlwLxBhyXgjItxjllFj-11" value="" style="edgeStyle=orthogonalEdgeStyle;rounded=0;orthogonalLoop=1;jettySize=auto;html=1;" parent="1" edge="1">
          <mxGeometry relative="1" as="geometry">
            <mxPoint x="400" y="700" as="sourcePoint" />
            <mxPoint x="400" y="780" as="targetPoint" />
          </mxGeometry>
        </mxCell>
        <mxCell id="jrlwLxBhyXgjItxjllFj-14" value="" style="edgeStyle=orthogonalEdgeStyle;rounded=0;orthogonalLoop=1;jettySize=auto;html=1;" parent="1" source="jrlwLxBhyXgjItxjllFj-12" target="jrlwLxBhyXgjItxjllFj-13" edge="1">
          <mxGeometry relative="1" as="geometry" />
        </mxCell>
        <mxCell id="jrlwLxBhyXgjItxjllFj-12" value="Start" style="ellipse;whiteSpace=wrap;html=1;" parent="1" vertex="1">
          <mxGeometry x="340" y="60" width="120" height="80" as="geometry" />
        </mxCell>
        <mxCell id="jrlwLxBhyXgjItxjllFj-16" value="" style="edgeStyle=orthogonalEdgeStyle;rounded=0;orthogonalLoop=1;jettySize=auto;html=1;" parent="1" source="jrlwLxBhyXgjItxjllFj-13" target="jrlwLxBhyXgjItxjllFj-15" edge="1">
          <mxGeometry relative="1" as="geometry" />
        </mxCell>
        <mxCell id="jrlwLxBhyXgjItxjllFj-13" value="Chọn món ăn&amp;nbsp;&lt;div&gt;&lt;br&gt;&lt;/div&gt;" style="rhombus;whiteSpace=wrap;html=1;" parent="1" vertex="1">
          <mxGeometry x="340" y="200" width="120" height="100" as="geometry" />
        </mxCell>
        <mxCell id="jrlwLxBhyXgjItxjllFj-18" value="" style="edgeStyle=orthogonalEdgeStyle;rounded=0;orthogonalLoop=1;jettySize=auto;html=1;" parent="1" source="jrlwLxBhyXgjItxjllFj-15" target="jrlwLxBhyXgjItxjllFj-17" edge="1">
          <mxGeometry relative="1" as="geometry" />
        </mxCell>
        <mxCell id="jrlwLxBhyXgjItxjllFj-15" value="Xác nhân món ăn" style="whiteSpace=wrap;html=1;" parent="1" vertex="1">
          <mxGeometry x="340" y="360" width="120" height="70" as="geometry" />
        </mxCell>
        <mxCell id="jrlwLxBhyXgjItxjllFj-20" value="" style="edgeStyle=orthogonalEdgeStyle;rounded=0;orthogonalLoop=1;jettySize=auto;html=1;" parent="1" source="jrlwLxBhyXgjItxjllFj-17" target="jrlwLxBhyXgjItxjllFj-19" edge="1">
          <mxGeometry relative="1" as="geometry" />
        </mxCell>
        <mxCell id="jrlwLxBhyXgjItxjllFj-17" value="Cung cấp địa chỉ và thanh toán" style="shape=parallelogram;perimeter=parallelogramPerimeter;whiteSpace=wrap;html=1;fixedSize=1;" parent="1" vertex="1">
          <mxGeometry x="320" y="500" width="160" height="75" as="geometry" />
        </mxCell>
        <mxCell id="jrlwLxBhyXgjItxjllFj-19" value="Nhận món ăn tại địa chỉ" style="whiteSpace=wrap;html=1;" parent="1" vertex="1">
          <mxGeometry x="340" y="640" width="120" height="82.5" as="geometry" />
        </mxCell>
        <mxCell id="jrlwLxBhyXgjItxjllFj-23" value="End." style="ellipse;whiteSpace=wrap;html=1;" parent="1" vertex="1">
          <mxGeometry x="340" y="780" width="120" height="80" as="geometry" />
        </mxCell>
      </root>
    </mxGraphModel>
  </diagram>
  <diagram id="iWA2H8crF-PJker0PTTK" name="bài tập 2">
    <mxGraphModel dx="1042" dy="562" grid="1" gridSize="10" guides="1" tooltips="1" connect="1" arrows="1" fold="1" page="1" pageScale="1" pageWidth="827" pageHeight="1169" math="0" shadow="0">
      <root>
        <mxCell id="0" />
        <mxCell id="1" parent="0" />
        <mxCell id="YsfMPXGKQ-kwtLjz295N-15" value="" style="edgeStyle=orthogonalEdgeStyle;rounded=0;orthogonalLoop=1;jettySize=auto;html=1;" parent="1" source="VvNjPKBxRW_iSUIODcLu-1" target="YsfMPXGKQ-kwtLjz295N-1" edge="1">
          <mxGeometry relative="1" as="geometry" />
        </mxCell>
        <mxCell id="VvNjPKBxRW_iSUIODcLu-1" value="Start" style="ellipse;whiteSpace=wrap;html=1;" parent="1" vertex="1">
          <mxGeometry x="330" y="40" width="120" height="80" as="geometry" />
        </mxCell>
        <mxCell id="YsfMPXGKQ-kwtLjz295N-14" value="" style="edgeStyle=orthogonalEdgeStyle;rounded=0;orthogonalLoop=1;jettySize=auto;html=1;" parent="1" source="YsfMPXGKQ-kwtLjz295N-1" target="YsfMPXGKQ-kwtLjz295N-4" edge="1">
          <mxGeometry relative="1" as="geometry" />
        </mxCell>
        <mxCell id="YsfMPXGKQ-kwtLjz295N-1" value="Vào của hàng" style="rounded=0;whiteSpace=wrap;html=1;" parent="1" vertex="1">
          <mxGeometry x="330" y="190" width="120" height="60" as="geometry" />
        </mxCell>
        <mxCell id="YsfMPXGKQ-kwtLjz295N-13" value="" style="edgeStyle=orthogonalEdgeStyle;rounded=0;orthogonalLoop=1;jettySize=auto;html=1;" parent="1" source="YsfMPXGKQ-kwtLjz295N-4" target="YsfMPXGKQ-kwtLjz295N-5" edge="1">
          <mxGeometry relative="1" as="geometry" />
        </mxCell>
        <mxCell id="YsfMPXGKQ-kwtLjz295N-4" value="Món ăn" style="shape=parallelogram;perimeter=parallelogramPerimeter;whiteSpace=wrap;html=1;fixedSize=1;" parent="1" vertex="1">
          <mxGeometry x="330" y="320" width="120" height="60" as="geometry" />
        </mxCell>
        <mxCell id="YsfMPXGKQ-kwtLjz295N-10" value="" style="edgeStyle=orthogonalEdgeStyle;rounded=0;orthogonalLoop=1;jettySize=auto;html=1;" parent="1" source="YsfMPXGKQ-kwtLjz295N-5" target="YsfMPXGKQ-kwtLjz295N-6" edge="1">
          <mxGeometry relative="1" as="geometry">
            <Array as="points">
              <mxPoint x="385" y="600" />
              <mxPoint x="385" y="600" />
            </Array>
          </mxGeometry>
        </mxCell>
        <mxCell id="YsfMPXGKQ-kwtLjz295N-11" value="" style="edgeStyle=orthogonalEdgeStyle;rounded=0;orthogonalLoop=1;jettySize=auto;html=1;" parent="1" source="YsfMPXGKQ-kwtLjz295N-5" target="YsfMPXGKQ-kwtLjz295N-9" edge="1">
          <mxGeometry relative="1" as="geometry" />
        </mxCell>
        <mxCell id="YsfMPXGKQ-kwtLjz295N-5" value="Món đó có trong cửa hàng" style="rhombus;whiteSpace=wrap;html=1;" parent="1" vertex="1">
          <mxGeometry x="330" y="470" width="110" height="80" as="geometry" />
        </mxCell>
        <mxCell id="YsfMPXGKQ-kwtLjz295N-12" value="" style="edgeStyle=orthogonalEdgeStyle;rounded=0;orthogonalLoop=1;jettySize=auto;html=1;" parent="1" source="YsfMPXGKQ-kwtLjz295N-6" target="YsfMPXGKQ-kwtLjz295N-8" edge="1">
          <mxGeometry relative="1" as="geometry" />
        </mxCell>
        <mxCell id="YsfMPXGKQ-kwtLjz295N-6" value="Mua" style="rounded=0;whiteSpace=wrap;html=1;" parent="1" vertex="1">
          <mxGeometry x="330" y="620" width="120" height="60" as="geometry" />
        </mxCell>
        <mxCell id="YsfMPXGKQ-kwtLjz295N-17" value="" style="edgeStyle=orthogonalEdgeStyle;rounded=0;orthogonalLoop=1;jettySize=auto;html=1;" parent="1" source="YsfMPXGKQ-kwtLjz295N-8" target="YsfMPXGKQ-kwtLjz295N-16" edge="1">
          <mxGeometry relative="1" as="geometry" />
        </mxCell>
        <mxCell id="YsfMPXGKQ-kwtLjz295N-8" value="Rời đi" style="rounded=0;whiteSpace=wrap;html=1;" parent="1" vertex="1">
          <mxGeometry x="330" y="760" width="120" height="60" as="geometry" />
        </mxCell>
        <mxCell id="YsfMPXGKQ-kwtLjz295N-19" style="edgeStyle=orthogonalEdgeStyle;rounded=0;orthogonalLoop=1;jettySize=auto;html=1;entryX=0.268;entryY=0.9;entryDx=0;entryDy=0;entryPerimeter=0;" parent="1" source="YsfMPXGKQ-kwtLjz295N-9" target="YsfMPXGKQ-kwtLjz295N-18" edge="1">
          <mxGeometry relative="1" as="geometry">
            <mxPoint x="190" y="600" as="targetPoint" />
            <Array as="points">
              <mxPoint x="190" y="570" />
              <mxPoint x="191" y="570" />
              <mxPoint x="191" y="585" />
            </Array>
          </mxGeometry>
        </mxCell>
        <mxCell id="YsfMPXGKQ-kwtLjz295N-21" style="edgeStyle=orthogonalEdgeStyle;rounded=0;orthogonalLoop=1;jettySize=auto;html=1;" parent="1" source="YsfMPXGKQ-kwtLjz295N-9" edge="1">
          <mxGeometry relative="1" as="geometry">
            <mxPoint x="390" y="720" as="targetPoint" />
            <Array as="points">
              <mxPoint x="121" y="510" />
            </Array>
          </mxGeometry>
        </mxCell>
        <mxCell id="YsfMPXGKQ-kwtLjz295N-9" value="Hỏi nhân viên" style="rhombus;whiteSpace=wrap;html=1;" parent="1" vertex="1">
          <mxGeometry x="150" y="470" width="80" height="80" as="geometry" />
        </mxCell>
        <mxCell id="YsfMPXGKQ-kwtLjz295N-16" value="Rời đi" style="ellipse;whiteSpace=wrap;html=1;" parent="1" vertex="1">
          <mxGeometry x="330" y="860" width="120" height="80" as="geometry" />
        </mxCell>
        <mxCell id="YsfMPXGKQ-kwtLjz295N-18" value="True" style="text;html=1;align=center;verticalAlign=middle;resizable=0;points=[];autosize=1;strokeColor=none;fillColor=none;" parent="1" vertex="1">
          <mxGeometry x="375" y="558" width="50" height="30" as="geometry" />
        </mxCell>
        <mxCell id="YsfMPXGKQ-kwtLjz295N-20" value="True" style="text;html=1;align=center;verticalAlign=middle;resizable=0;points=[];autosize=1;strokeColor=none;fillColor=none;" parent="1" vertex="1">
          <mxGeometry x="235" y="558" width="50" height="30" as="geometry" />
        </mxCell>
        <mxCell id="YsfMPXGKQ-kwtLjz295N-22" value="F" style="text;html=1;align=center;verticalAlign=middle;resizable=0;points=[];autosize=1;strokeColor=none;fillColor=none;" parent="1" vertex="1">
          <mxGeometry x="85" y="608" width="30" height="30" as="geometry" />
        </mxCell>
      </root>
    </mxGraphModel>
  </diagram>
  <diagram id="nCD2XmwTTA4uemlvNN8J" name="Bài tập 7">
    <mxGraphModel dx="1042" dy="562" grid="1" gridSize="10" guides="1" tooltips="1" connect="1" arrows="1" fold="1" page="1" pageScale="1" pageWidth="827" pageHeight="1169" math="0" shadow="0">
      <root>
        <mxCell id="0" />
        <mxCell id="1" parent="0" />
        <mxCell id="FlVF1AU918IgwSMgqvgn-7" value="" style="edgeStyle=orthogonalEdgeStyle;rounded=0;orthogonalLoop=1;jettySize=auto;html=1;" edge="1" parent="1" source="FlVF1AU918IgwSMgqvgn-1" target="FlVF1AU918IgwSMgqvgn-2">
          <mxGeometry relative="1" as="geometry" />
        </mxCell>
        <mxCell id="FlVF1AU918IgwSMgqvgn-1" value="Start" style="ellipse;whiteSpace=wrap;html=1;" vertex="1" parent="1">
          <mxGeometry x="190" y="40" width="120" height="80" as="geometry" />
        </mxCell>
        <mxCell id="FlVF1AU918IgwSMgqvgn-8" value="" style="edgeStyle=orthogonalEdgeStyle;rounded=0;orthogonalLoop=1;jettySize=auto;html=1;" edge="1" parent="1" source="FlVF1AU918IgwSMgqvgn-2" target="FlVF1AU918IgwSMgqvgn-3">
          <mxGeometry relative="1" as="geometry" />
        </mxCell>
        <mxCell id="FlVF1AU918IgwSMgqvgn-2" value="Nhập N" style="shape=parallelogram;perimeter=parallelogramPerimeter;whiteSpace=wrap;html=1;fixedSize=1;" vertex="1" parent="1">
          <mxGeometry x="190" y="170" width="120" height="60" as="geometry" />
        </mxCell>
        <mxCell id="FlVF1AU918IgwSMgqvgn-9" value="" style="edgeStyle=orthogonalEdgeStyle;rounded=0;orthogonalLoop=1;jettySize=auto;html=1;" edge="1" parent="1" source="FlVF1AU918IgwSMgqvgn-3" target="FlVF1AU918IgwSMgqvgn-5">
          <mxGeometry relative="1" as="geometry" />
        </mxCell>
        <mxCell id="FlVF1AU918IgwSMgqvgn-3" value="Tổng 1 + .... + N" style="rounded=0;whiteSpace=wrap;html=1;" vertex="1" parent="1">
          <mxGeometry x="190" y="290" width="120" height="60" as="geometry" />
        </mxCell>
        <mxCell id="FlVF1AU918IgwSMgqvgn-10" value="" style="edgeStyle=orthogonalEdgeStyle;rounded=0;orthogonalLoop=1;jettySize=auto;html=1;" edge="1" parent="1" source="FlVF1AU918IgwSMgqvgn-5" target="FlVF1AU918IgwSMgqvgn-6">
          <mxGeometry relative="1" as="geometry" />
        </mxCell>
        <mxCell id="FlVF1AU918IgwSMgqvgn-5" value="In tổng" style="shape=parallelogram;perimeter=parallelogramPerimeter;whiteSpace=wrap;html=1;fixedSize=1;" vertex="1" parent="1">
          <mxGeometry x="190" y="400" width="120" height="60" as="geometry" />
        </mxCell>
        <mxCell id="FlVF1AU918IgwSMgqvgn-6" value="End." style="ellipse;whiteSpace=wrap;html=1;" vertex="1" parent="1">
          <mxGeometry x="190" y="500" width="120" height="80" as="geometry" />
        </mxCell>
      </root>
    </mxGraphModel>
  </diagram>
  <diagram id="YenocyLVfxW6cXLPZjpH" name="Bài tập 6">
    <mxGraphModel dx="1042" dy="562" grid="1" gridSize="10" guides="1" tooltips="1" connect="1" arrows="1" fold="1" page="1" pageScale="1" pageWidth="827" pageHeight="1169" math="0" shadow="0">
      <root>
        <mxCell id="0" />
        <mxCell id="1" parent="0" />
        <mxCell id="-aYXlggO0R1JldPJ-QK4-10" value="" style="edgeStyle=orthogonalEdgeStyle;rounded=0;orthogonalLoop=1;jettySize=auto;html=1;" edge="1" parent="1" source="6Rc7sl7cpj4T48dkzf6W-1" target="6Rc7sl7cpj4T48dkzf6W-2">
          <mxGeometry relative="1" as="geometry" />
        </mxCell>
        <mxCell id="6Rc7sl7cpj4T48dkzf6W-1" value="Start" style="ellipse;whiteSpace=wrap;html=1;" vertex="1" parent="1">
          <mxGeometry x="320" y="40" width="120" height="80" as="geometry" />
        </mxCell>
        <mxCell id="-aYXlggO0R1JldPJ-QK4-11" value="" style="edgeStyle=orthogonalEdgeStyle;rounded=0;orthogonalLoop=1;jettySize=auto;html=1;" edge="1" parent="1" source="6Rc7sl7cpj4T48dkzf6W-2">
          <mxGeometry relative="1" as="geometry">
            <mxPoint x="380" y="340" as="targetPoint" />
          </mxGeometry>
        </mxCell>
        <mxCell id="6Rc7sl7cpj4T48dkzf6W-2" value="Nhập N" style="shape=parallelogram;perimeter=parallelogramPerimeter;whiteSpace=wrap;html=1;fixedSize=1;" vertex="1" parent="1">
          <mxGeometry x="320" y="200" width="120" height="60" as="geometry" />
        </mxCell>
        <mxCell id="-aYXlggO0R1JldPJ-QK4-4" value="" style="edgeStyle=orthogonalEdgeStyle;rounded=0;orthogonalLoop=1;jettySize=auto;html=1;" edge="1" parent="1">
          <mxGeometry relative="1" as="geometry">
            <mxPoint x="380" y="400" as="sourcePoint" />
            <mxPoint x="380" y="480" as="targetPoint" />
          </mxGeometry>
        </mxCell>
        <mxCell id="-aYXlggO0R1JldPJ-QK4-6" value="" style="edgeStyle=orthogonalEdgeStyle;rounded=0;orthogonalLoop=1;jettySize=auto;html=1;" edge="1" parent="1">
          <mxGeometry relative="1" as="geometry">
            <mxPoint x="440" y="370" as="sourcePoint" />
            <mxPoint x="530" y="370" as="targetPoint" />
          </mxGeometry>
        </mxCell>
        <mxCell id="-aYXlggO0R1JldPJ-QK4-9" value="" style="edgeStyle=orthogonalEdgeStyle;rounded=0;orthogonalLoop=1;jettySize=auto;html=1;" edge="1" parent="1" target="-aYXlggO0R1JldPJ-QK4-8">
          <mxGeometry relative="1" as="geometry">
            <mxPoint x="380" y="540" as="sourcePoint" />
          </mxGeometry>
        </mxCell>
        <mxCell id="-aYXlggO0R1JldPJ-QK4-5" value="T" style="text;html=1;align=center;verticalAlign=middle;resizable=0;points=[];autosize=1;strokeColor=none;fillColor=none;" vertex="1" parent="1">
          <mxGeometry x="384" y="420" width="30" height="30" as="geometry" />
        </mxCell>
        <mxCell id="-aYXlggO0R1JldPJ-QK4-7" value="F" style="text;html=1;align=center;verticalAlign=middle;resizable=0;points=[];autosize=1;strokeColor=none;fillColor=none;" vertex="1" parent="1">
          <mxGeometry x="465" y="348" width="30" height="30" as="geometry" />
        </mxCell>
        <mxCell id="-aYXlggO0R1JldPJ-QK4-8" value="End." style="ellipse;whiteSpace=wrap;html=1;" vertex="1" parent="1">
          <mxGeometry x="320" y="590" width="120" height="80" as="geometry" />
        </mxCell>
        <mxCell id="-aYXlggO0R1JldPJ-QK4-12" value="Chẵn" style="shape=parallelogram;perimeter=parallelogramPerimeter;whiteSpace=wrap;html=1;fixedSize=1;" vertex="1" parent="1">
          <mxGeometry x="320" y="480" width="120" height="60" as="geometry" />
        </mxCell>
        <mxCell id="-aYXlggO0R1JldPJ-QK4-13" value="Lẽ" style="shape=parallelogram;perimeter=parallelogramPerimeter;whiteSpace=wrap;html=1;fixedSize=1;" vertex="1" parent="1">
          <mxGeometry x="530" y="340" width="120" height="60" as="geometry" />
        </mxCell>
        <mxCell id="XqzFfMbMT6lCGws3MLcp-1" value="N / 2 = 0" style="rhombus;whiteSpace=wrap;html=1;" vertex="1" parent="1">
          <mxGeometry x="320" y="340" width="120" height="88" as="geometry" />
        </mxCell>
      </root>
    </mxGraphModel>
  </diagram>
  <diagram id="aaTh8T6nDfZSwuXYzOgC" name="Bài tập 5">
    <mxGraphModel dx="1042" dy="562" grid="1" gridSize="10" guides="1" tooltips="1" connect="1" arrows="1" fold="1" page="1" pageScale="1" pageWidth="827" pageHeight="1169" math="0" shadow="0">
      <root>
        <mxCell id="0" />
        <mxCell id="1" parent="0" />
        <mxCell id="pdDm3oB-ca30580WzzHY-7" value="" style="edgeStyle=orthogonalEdgeStyle;rounded=0;orthogonalLoop=1;jettySize=auto;html=1;" edge="1" parent="1" source="eTgCBHs3qZVdWj5W8HgY-1" target="eTgCBHs3qZVdWj5W8HgY-2">
          <mxGeometry relative="1" as="geometry" />
        </mxCell>
        <mxCell id="eTgCBHs3qZVdWj5W8HgY-1" value="Start" style="ellipse;whiteSpace=wrap;html=1;" vertex="1" parent="1">
          <mxGeometry x="330" y="40" width="120" height="80" as="geometry" />
        </mxCell>
        <mxCell id="pdDm3oB-ca30580WzzHY-8" value="" style="edgeStyle=orthogonalEdgeStyle;rounded=0;orthogonalLoop=1;jettySize=auto;html=1;" edge="1" parent="1" source="eTgCBHs3qZVdWj5W8HgY-2">
          <mxGeometry relative="1" as="geometry">
            <mxPoint x="390" y="320" as="targetPoint" />
          </mxGeometry>
        </mxCell>
        <mxCell id="eTgCBHs3qZVdWj5W8HgY-2" value="A, B, C" style="shape=parallelogram;perimeter=parallelogramPerimeter;whiteSpace=wrap;html=1;fixedSize=1;" vertex="1" parent="1">
          <mxGeometry x="330" y="190" width="120" height="60" as="geometry" />
        </mxCell>
        <mxCell id="pdDm3oB-ca30580WzzHY-3" value="" style="edgeStyle=orthogonalEdgeStyle;rounded=0;orthogonalLoop=1;jettySize=auto;html=1;" edge="1" parent="1" target="pdDm3oB-ca30580WzzHY-2">
          <mxGeometry relative="1" as="geometry">
            <mxPoint x="390" y="380" as="sourcePoint" />
          </mxGeometry>
        </mxCell>
        <mxCell id="pdDm3oB-ca30580WzzHY-5" value="" style="edgeStyle=orthogonalEdgeStyle;rounded=0;orthogonalLoop=1;jettySize=auto;html=1;" edge="1" parent="1">
          <mxGeometry relative="1" as="geometry">
            <mxPoint x="440" y="350" as="sourcePoint" />
            <mxPoint x="540" y="350" as="targetPoint" />
          </mxGeometry>
        </mxCell>
        <mxCell id="pdDm3oB-ca30580WzzHY-18" style="edgeStyle=orthogonalEdgeStyle;rounded=0;orthogonalLoop=1;jettySize=auto;html=1;exitX=0.5;exitY=1;exitDx=0;exitDy=0;entryX=0.5;entryY=0;entryDx=0;entryDy=0;" edge="1" parent="1" source="pdDm3oB-ca30580WzzHY-2" target="pdDm3oB-ca30580WzzHY-17">
          <mxGeometry relative="1" as="geometry" />
        </mxCell>
        <mxCell id="pdDm3oB-ca30580WzzHY-2" value="A" style="shape=parallelogram;perimeter=parallelogramPerimeter;whiteSpace=wrap;html=1;fixedSize=1;rounded=0;" vertex="1" parent="1">
          <mxGeometry x="330" y="460" width="120" height="60" as="geometry" />
        </mxCell>
        <mxCell id="pdDm3oB-ca30580WzzHY-10" value="" style="edgeStyle=orthogonalEdgeStyle;rounded=0;orthogonalLoop=1;jettySize=auto;html=1;" edge="1" parent="1" target="pdDm3oB-ca30580WzzHY-9">
          <mxGeometry relative="1" as="geometry">
            <mxPoint x="660" y="350" as="sourcePoint" />
          </mxGeometry>
        </mxCell>
        <mxCell id="pdDm3oB-ca30580WzzHY-12" value="" style="edgeStyle=orthogonalEdgeStyle;rounded=0;orthogonalLoop=1;jettySize=auto;html=1;" edge="1" parent="1" target="pdDm3oB-ca30580WzzHY-11">
          <mxGeometry relative="1" as="geometry">
            <mxPoint x="600" y="380" as="sourcePoint" />
          </mxGeometry>
        </mxCell>
        <mxCell id="pdDm3oB-ca30580WzzHY-16" value="F" style="edgeLabel;html=1;align=center;verticalAlign=middle;resizable=0;points=[];" vertex="1" connectable="0" parent="pdDm3oB-ca30580WzzHY-12">
          <mxGeometry x="0.035" y="9" relative="1" as="geometry">
            <mxPoint as="offset" />
          </mxGeometry>
        </mxCell>
        <mxCell id="pdDm3oB-ca30580WzzHY-20" style="edgeStyle=orthogonalEdgeStyle;rounded=0;orthogonalLoop=1;jettySize=auto;html=1;exitX=0.5;exitY=1;exitDx=0;exitDy=0;entryX=1;entryY=0.5;entryDx=0;entryDy=0;" edge="1" parent="1" source="pdDm3oB-ca30580WzzHY-9" target="pdDm3oB-ca30580WzzHY-17">
          <mxGeometry relative="1" as="geometry">
            <mxPoint x="800" y="680" as="targetPoint" />
          </mxGeometry>
        </mxCell>
        <mxCell id="pdDm3oB-ca30580WzzHY-9" value="B" style="shape=parallelogram;perimeter=parallelogramPerimeter;whiteSpace=wrap;html=1;fixedSize=1;rounded=0;" vertex="1" parent="1">
          <mxGeometry x="740" y="320" width="120" height="60" as="geometry" />
        </mxCell>
        <mxCell id="pdDm3oB-ca30580WzzHY-19" style="edgeStyle=orthogonalEdgeStyle;rounded=0;orthogonalLoop=1;jettySize=auto;html=1;exitX=0.5;exitY=1;exitDx=0;exitDy=0;entryX=1;entryY=0.5;entryDx=0;entryDy=0;" edge="1" parent="1" source="pdDm3oB-ca30580WzzHY-11" target="pdDm3oB-ca30580WzzHY-17">
          <mxGeometry relative="1" as="geometry">
            <mxPoint x="600" y="680" as="targetPoint" />
          </mxGeometry>
        </mxCell>
        <mxCell id="pdDm3oB-ca30580WzzHY-11" value="C" style="shape=parallelogram;perimeter=parallelogramPerimeter;whiteSpace=wrap;html=1;fixedSize=1;rounded=0;" vertex="1" parent="1">
          <mxGeometry x="540" y="460" width="120" height="60" as="geometry" />
        </mxCell>
        <mxCell id="pdDm3oB-ca30580WzzHY-13" value="F" style="text;html=1;align=center;verticalAlign=middle;resizable=0;points=[];autosize=1;strokeColor=none;fillColor=none;" vertex="1" parent="1">
          <mxGeometry x="465" y="318" width="30" height="30" as="geometry" />
        </mxCell>
        <mxCell id="pdDm3oB-ca30580WzzHY-14" value="T" style="text;html=1;align=center;verticalAlign=middle;resizable=0;points=[];autosize=1;strokeColor=none;fillColor=none;" vertex="1" parent="1">
          <mxGeometry x="405" y="408" width="30" height="30" as="geometry" />
        </mxCell>
        <mxCell id="pdDm3oB-ca30580WzzHY-15" value="T" style="text;html=1;align=center;verticalAlign=middle;resizable=0;points=[];autosize=1;strokeColor=none;fillColor=none;" vertex="1" parent="1">
          <mxGeometry x="695" y="318" width="30" height="30" as="geometry" />
        </mxCell>
        <mxCell id="pdDm3oB-ca30580WzzHY-17" value="End." style="ellipse;whiteSpace=wrap;html=1;" vertex="1" parent="1">
          <mxGeometry x="330" y="630" width="120" height="80" as="geometry" />
        </mxCell>
        <mxCell id="pdDm3oB-ca30580WzzHY-21" value="A &amp;gt; B &amp;gt; C" style="rhombus;whiteSpace=wrap;html=1;" vertex="1" parent="1">
          <mxGeometry x="330" y="310" width="120" height="80" as="geometry" />
        </mxCell>
        <mxCell id="pdDm3oB-ca30580WzzHY-22" value="B &amp;gt; C" style="rhombus;whiteSpace=wrap;html=1;" vertex="1" parent="1">
          <mxGeometry x="550" y="310" width="110" height="80" as="geometry" />
        </mxCell>
      </root>
    </mxGraphModel>
  </diagram>
  <diagram id="jDZrFBpfDGLkSi00UOim" name="bài tập 3">
    <mxGraphModel dx="1042" dy="562" grid="1" gridSize="10" guides="1" tooltips="1" connect="1" arrows="1" fold="1" page="1" pageScale="1" pageWidth="827" pageHeight="1169" math="0" shadow="0">
      <root>
        <mxCell id="0" />
        <mxCell id="1" parent="0" />
        <mxCell id="8LPQGuac9SEsSHYrzVFD-9" value="" style="edgeStyle=orthogonalEdgeStyle;rounded=0;orthogonalLoop=1;jettySize=auto;html=1;" edge="1" parent="1" source="8LPQGuac9SEsSHYrzVFD-1" target="8LPQGuac9SEsSHYrzVFD-3">
          <mxGeometry relative="1" as="geometry" />
        </mxCell>
        <mxCell id="8LPQGuac9SEsSHYrzVFD-1" value="Start" style="ellipse;whiteSpace=wrap;html=1;" vertex="1" parent="1">
          <mxGeometry x="354" y="40" width="120" height="80" as="geometry" />
        </mxCell>
        <mxCell id="8LPQGuac9SEsSHYrzVFD-10" value="" style="edgeStyle=orthogonalEdgeStyle;rounded=0;orthogonalLoop=1;jettySize=auto;html=1;" edge="1" parent="1" source="8LPQGuac9SEsSHYrzVFD-3" target="8LPQGuac9SEsSHYrzVFD-4">
          <mxGeometry relative="1" as="geometry" />
        </mxCell>
        <mxCell id="8LPQGuac9SEsSHYrzVFD-3" value="Nhập tên, email và mật khẩu" style="shape=parallelogram;perimeter=parallelogramPerimeter;whiteSpace=wrap;html=1;fixedSize=1;" vertex="1" parent="1">
          <mxGeometry x="354" y="160" width="120" height="60" as="geometry" />
        </mxCell>
        <mxCell id="8LPQGuac9SEsSHYrzVFD-11" value="" style="edgeStyle=orthogonalEdgeStyle;rounded=0;orthogonalLoop=1;jettySize=auto;html=1;" edge="1" parent="1" source="8LPQGuac9SEsSHYrzVFD-4" target="8LPQGuac9SEsSHYrzVFD-5">
          <mxGeometry relative="1" as="geometry" />
        </mxCell>
        <mxCell id="8LPQGuac9SEsSHYrzVFD-13" value="" style="edgeStyle=orthogonalEdgeStyle;rounded=0;orthogonalLoop=1;jettySize=auto;html=1;" edge="1" parent="1" source="8LPQGuac9SEsSHYrzVFD-4" target="8LPQGuac9SEsSHYrzVFD-8">
          <mxGeometry relative="1" as="geometry" />
        </mxCell>
        <mxCell id="8LPQGuac9SEsSHYrzVFD-4" value="Hợp lệ ?" style="rhombus;whiteSpace=wrap;html=1;" vertex="1" parent="1">
          <mxGeometry x="360" y="260" width="110" height="90" as="geometry" />
        </mxCell>
        <mxCell id="8LPQGuac9SEsSHYrzVFD-12" value="" style="edgeStyle=orthogonalEdgeStyle;rounded=0;orthogonalLoop=1;jettySize=auto;html=1;" edge="1" parent="1" source="8LPQGuac9SEsSHYrzVFD-5" target="8LPQGuac9SEsSHYrzVFD-7">
          <mxGeometry relative="1" as="geometry" />
        </mxCell>
        <mxCell id="8LPQGuac9SEsSHYrzVFD-5" value="Đăng ký tài khoản" style="rounded=0;whiteSpace=wrap;html=1;" vertex="1" parent="1">
          <mxGeometry x="360" y="400" width="120" height="60" as="geometry" />
        </mxCell>
        <mxCell id="8LPQGuac9SEsSHYrzVFD-7" value="end" style="ellipse;whiteSpace=wrap;html=1;" vertex="1" parent="1">
          <mxGeometry x="360" y="505" width="120" height="80" as="geometry" />
        </mxCell>
        <mxCell id="8LPQGuac9SEsSHYrzVFD-8" value="Lỗi" style="shape=parallelogram;perimeter=parallelogramPerimeter;whiteSpace=wrap;html=1;fixedSize=1;" vertex="1" parent="1">
          <mxGeometry x="580" y="275" width="120" height="60" as="geometry" />
        </mxCell>
        <mxCell id="8LPQGuac9SEsSHYrzVFD-14" style="edgeStyle=orthogonalEdgeStyle;rounded=0;orthogonalLoop=1;jettySize=auto;html=1;entryX=1;entryY=0.417;entryDx=0;entryDy=0;entryPerimeter=0;" edge="1" parent="1" source="8LPQGuac9SEsSHYrzVFD-8" target="8LPQGuac9SEsSHYrzVFD-3">
          <mxGeometry relative="1" as="geometry">
            <Array as="points">
              <mxPoint x="640" y="185" />
            </Array>
          </mxGeometry>
        </mxCell>
      </root>
    </mxGraphModel>
  </diagram>
  <diagram id="s5Yiwp9JGzwRNGfijB18" name="bài tập 4">
    <mxGraphModel dx="1042" dy="562" grid="1" gridSize="10" guides="1" tooltips="1" connect="1" arrows="1" fold="1" page="1" pageScale="1" pageWidth="827" pageHeight="1169" math="0" shadow="0">
      <root>
        <mxCell id="0" />
        <mxCell id="1" parent="0" />
        <mxCell id="r3KuX9Pvtjsu0F6urpIZ-10" value="" style="edgeStyle=orthogonalEdgeStyle;rounded=0;orthogonalLoop=1;jettySize=auto;html=1;" edge="1" parent="1" source="r3KuX9Pvtjsu0F6urpIZ-1" target="r3KuX9Pvtjsu0F6urpIZ-2">
          <mxGeometry relative="1" as="geometry" />
        </mxCell>
        <mxCell id="r3KuX9Pvtjsu0F6urpIZ-1" value="start" style="ellipse;whiteSpace=wrap;html=1;" vertex="1" parent="1">
          <mxGeometry x="354" y="50" width="120" height="80" as="geometry" />
        </mxCell>
        <mxCell id="r3KuX9Pvtjsu0F6urpIZ-11" value="" style="edgeStyle=orthogonalEdgeStyle;rounded=0;orthogonalLoop=1;jettySize=auto;html=1;" edge="1" parent="1" source="r3KuX9Pvtjsu0F6urpIZ-2" target="r3KuX9Pvtjsu0F6urpIZ-3">
          <mxGeometry relative="1" as="geometry" />
        </mxCell>
        <mxCell id="r3KuX9Pvtjsu0F6urpIZ-2" value="Các công việc cần làm" style="shape=parallelogram;perimeter=parallelogramPerimeter;whiteSpace=wrap;html=1;fixedSize=1;" vertex="1" parent="1">
          <mxGeometry x="354" y="180" width="120" height="60" as="geometry" />
        </mxCell>
        <mxCell id="r3KuX9Pvtjsu0F6urpIZ-12" value="" style="edgeStyle=orthogonalEdgeStyle;rounded=0;orthogonalLoop=1;jettySize=auto;html=1;" edge="1" parent="1" source="r3KuX9Pvtjsu0F6urpIZ-3" target="r3KuX9Pvtjsu0F6urpIZ-5">
          <mxGeometry relative="1" as="geometry" />
        </mxCell>
        <mxCell id="r3KuX9Pvtjsu0F6urpIZ-3" value="Làm việc" style="rhombus;whiteSpace=wrap;html=1;" vertex="1" parent="1">
          <mxGeometry x="360" y="290" width="110" height="100" as="geometry" />
        </mxCell>
        <mxCell id="r3KuX9Pvtjsu0F6urpIZ-13" value="" style="edgeStyle=orthogonalEdgeStyle;rounded=0;orthogonalLoop=1;jettySize=auto;html=1;" edge="1" parent="1" source="r3KuX9Pvtjsu0F6urpIZ-5" target="r3KuX9Pvtjsu0F6urpIZ-7">
          <mxGeometry relative="1" as="geometry" />
        </mxCell>
        <mxCell id="r3KuX9Pvtjsu0F6urpIZ-14" value="" style="edgeStyle=orthogonalEdgeStyle;rounded=0;orthogonalLoop=1;jettySize=auto;html=1;" edge="1" parent="1" source="r3KuX9Pvtjsu0F6urpIZ-5" target="r3KuX9Pvtjsu0F6urpIZ-8">
          <mxGeometry relative="1" as="geometry" />
        </mxCell>
        <mxCell id="r3KuX9Pvtjsu0F6urpIZ-5" value="Hoàn thành" style="rounded=0;whiteSpace=wrap;html=1;" vertex="1" parent="1">
          <mxGeometry x="354" y="450" width="120" height="60" as="geometry" />
        </mxCell>
        <mxCell id="r3KuX9Pvtjsu0F6urpIZ-7" value="Đánh dấu đã hoàn thành cv" style="shape=parallelogram;perimeter=parallelogramPerimeter;whiteSpace=wrap;html=1;fixedSize=1;" vertex="1" parent="1">
          <mxGeometry x="550" y="450" width="120" height="60" as="geometry" />
        </mxCell>
        <mxCell id="r3KuX9Pvtjsu0F6urpIZ-15" style="edgeStyle=orthogonalEdgeStyle;rounded=0;orthogonalLoop=1;jettySize=auto;html=1;entryX=0;entryY=0.5;entryDx=0;entryDy=0;" edge="1" parent="1" source="r3KuX9Pvtjsu0F6urpIZ-8" target="r3KuX9Pvtjsu0F6urpIZ-3">
          <mxGeometry relative="1" as="geometry">
            <Array as="points">
              <mxPoint x="260" y="620" />
              <mxPoint x="260" y="340" />
            </Array>
          </mxGeometry>
        </mxCell>
        <mxCell id="r3KuX9Pvtjsu0F6urpIZ-17" value="" style="edgeStyle=orthogonalEdgeStyle;rounded=0;orthogonalLoop=1;jettySize=auto;html=1;" edge="1" parent="1" source="r3KuX9Pvtjsu0F6urpIZ-8" target="r3KuX9Pvtjsu0F6urpIZ-16">
          <mxGeometry relative="1" as="geometry" />
        </mxCell>
        <mxCell id="r3KuX9Pvtjsu0F6urpIZ-8" value="Có công việc chưa xong?" style="rhombus;whiteSpace=wrap;html=1;" vertex="1" parent="1">
          <mxGeometry x="370" y="580" width="90" height="80" as="geometry" />
        </mxCell>
        <mxCell id="r3KuX9Pvtjsu0F6urpIZ-16" value="end." style="ellipse;whiteSpace=wrap;html=1;" vertex="1" parent="1">
          <mxGeometry x="355" y="690" width="120" height="80" as="geometry" />
        </mxCell>
        <mxCell id="r3KuX9Pvtjsu0F6urpIZ-18" value="F" style="text;html=1;align=center;verticalAlign=middle;resizable=0;points=[];autosize=1;strokeColor=none;fillColor=none;" vertex="1" parent="1">
          <mxGeometry x="415" y="658" width="30" height="30" as="geometry" />
        </mxCell>
        <mxCell id="r3KuX9Pvtjsu0F6urpIZ-19" value="T" style="text;html=1;align=center;verticalAlign=middle;resizable=0;points=[];autosize=1;strokeColor=none;fillColor=none;" vertex="1" parent="1">
          <mxGeometry x="265" y="448" width="30" height="30" as="geometry" />
        </mxCell>
      </root>
    </mxGraphModel>
  </diagram>
  <diagram id="ElRSGc6wnkBoQiTHJWvf" name="bai tap 8">
    <mxGraphModel dx="1042" dy="562" grid="1" gridSize="10" guides="1" tooltips="1" connect="1" arrows="1" fold="1" page="1" pageScale="1" pageWidth="827" pageHeight="1169" math="0" shadow="0">
      <root>
        <mxCell id="0" />
        <mxCell id="1" parent="0" />
        <mxCell id="j26_RRGtvMK_QnhMwUMF-6" value="" style="edgeStyle=orthogonalEdgeStyle;rounded=0;orthogonalLoop=1;jettySize=auto;html=1;" edge="1" parent="1" source="j26_RRGtvMK_QnhMwUMF-1" target="j26_RRGtvMK_QnhMwUMF-2">
          <mxGeometry relative="1" as="geometry" />
        </mxCell>
        <mxCell id="j26_RRGtvMK_QnhMwUMF-1" value="Start" style="ellipse;whiteSpace=wrap;html=1;" vertex="1" parent="1">
          <mxGeometry x="350" y="40" width="120" height="80" as="geometry" />
        </mxCell>
        <mxCell id="j26_RRGtvMK_QnhMwUMF-7" value="" style="edgeStyle=orthogonalEdgeStyle;rounded=0;orthogonalLoop=1;jettySize=auto;html=1;" edge="1" parent="1" source="j26_RRGtvMK_QnhMwUMF-2" target="j26_RRGtvMK_QnhMwUMF-3">
          <mxGeometry relative="1" as="geometry" />
        </mxCell>
        <mxCell id="j26_RRGtvMK_QnhMwUMF-2" value="Nhap N" style="shape=parallelogram;perimeter=parallelogramPerimeter;whiteSpace=wrap;html=1;fixedSize=1;" vertex="1" parent="1">
          <mxGeometry x="354" y="180" width="120" height="60" as="geometry" />
        </mxCell>
        <mxCell id="j26_RRGtvMK_QnhMwUMF-8" value="" style="edgeStyle=orthogonalEdgeStyle;rounded=0;orthogonalLoop=1;jettySize=auto;html=1;" edge="1" parent="1" source="j26_RRGtvMK_QnhMwUMF-3" target="j26_RRGtvMK_QnhMwUMF-4">
          <mxGeometry relative="1" as="geometry" />
        </mxCell>
        <mxCell id="j26_RRGtvMK_QnhMwUMF-3" value="&lt;span class=&quot;base&quot;&gt;&lt;span class=&quot;mord mathnormal&quot;&gt;N&lt;/span&gt;&lt;span class=&quot;mclose&quot;&gt;!&lt;/span&gt;&lt;span class=&quot;mspace&quot;&gt;&lt;/span&gt;&lt;span class=&quot;mrel&quot;&gt;=&lt;/span&gt;&lt;span class=&quot;mspace&quot;&gt;&lt;/span&gt;&lt;/span&gt;&lt;span class=&quot;base&quot;&gt;&lt;span class=&quot;strut&quot;&gt;&lt;/span&gt;&lt;span class=&quot;mord&quot;&gt;1&lt;/span&gt;&lt;span class=&quot;mspace&quot;&gt;&lt;/span&gt;&lt;span class=&quot;mbin&quot;&gt;×&lt;/span&gt;&lt;span class=&quot;mspace&quot;&gt;&lt;/span&gt;&lt;/span&gt;&lt;span class=&quot;base&quot;&gt;&lt;span class=&quot;strut&quot;&gt;&lt;/span&gt;&lt;span class=&quot;mord&quot;&gt;2&lt;/span&gt;&lt;span class=&quot;mspace&quot;&gt;&lt;/span&gt;&lt;span class=&quot;mbin&quot;&gt;×&lt;/span&gt;&lt;span class=&quot;mspace&quot;&gt;&lt;/span&gt;&lt;/span&gt;&lt;span class=&quot;base&quot;&gt;&lt;span class=&quot;strut&quot;&gt;&lt;/span&gt;&lt;span class=&quot;mord&quot;&gt;3&lt;/span&gt;&lt;span class=&quot;mspace&quot;&gt;&lt;/span&gt;&lt;span class=&quot;mbin&quot;&gt;×&lt;/span&gt;&lt;span class=&quot;mspace&quot;&gt;&lt;/span&gt;&lt;/span&gt;&lt;span class=&quot;base&quot;&gt;&lt;span class=&quot;strut&quot;&gt;&lt;/span&gt;&lt;span class=&quot;mord&quot;&gt;...&lt;/span&gt;&lt;span class=&quot;mspace&quot;&gt;&lt;/span&gt;&lt;span class=&quot;mbin&quot;&gt;×&lt;/span&gt;&lt;span class=&quot;mspace&quot;&gt;&lt;/span&gt;&lt;/span&gt;&lt;span class=&quot;base&quot;&gt;&lt;span class=&quot;strut&quot;&gt;&lt;/span&gt;&lt;span class=&quot;mopen&quot;&gt;(&lt;/span&gt;&lt;span class=&quot;mord mathnormal&quot;&gt;N&lt;/span&gt;&lt;span class=&quot;mspace&quot;&gt;&lt;/span&gt;&lt;span class=&quot;mbin&quot;&gt;−&lt;/span&gt;&lt;span class=&quot;mspace&quot;&gt;&lt;/span&gt;&lt;/span&gt;&lt;span class=&quot;base&quot;&gt;&lt;span class=&quot;strut&quot;&gt;&lt;/span&gt;&lt;span class=&quot;mord&quot;&gt;1&lt;/span&gt;&lt;span class=&quot;mclose&quot;&gt;)&lt;/span&gt;&lt;span class=&quot;mspace&quot;&gt;&lt;/span&gt;&lt;span class=&quot;mbin&quot;&gt;×&lt;/span&gt;&lt;span class=&quot;mspace&quot;&gt;&lt;/span&gt;&lt;/span&gt;&lt;span class=&quot;base&quot;&gt;&lt;span class=&quot;strut&quot;&gt;&lt;/span&gt;&lt;span class=&quot;mord mathnormal&quot;&gt;N&lt;/span&gt;&lt;/span&gt;" style="rounded=0;whiteSpace=wrap;html=1;" vertex="1" parent="1">
          <mxGeometry x="350" y="300" width="140" height="60" as="geometry" />
        </mxCell>
        <mxCell id="j26_RRGtvMK_QnhMwUMF-9" value="" style="edgeStyle=orthogonalEdgeStyle;rounded=0;orthogonalLoop=1;jettySize=auto;html=1;" edge="1" parent="1" source="j26_RRGtvMK_QnhMwUMF-4" target="j26_RRGtvMK_QnhMwUMF-5">
          <mxGeometry relative="1" as="geometry" />
        </mxCell>
        <mxCell id="j26_RRGtvMK_QnhMwUMF-4" value="In ra KQ" style="shape=parallelogram;perimeter=parallelogramPerimeter;whiteSpace=wrap;html=1;fixedSize=1;" vertex="1" parent="1">
          <mxGeometry x="360" y="400" width="120" height="60" as="geometry" />
        </mxCell>
        <mxCell id="j26_RRGtvMK_QnhMwUMF-5" value="end" style="ellipse;whiteSpace=wrap;html=1;" vertex="1" parent="1">
          <mxGeometry x="360" y="505" width="120" height="80" as="geometry" />
        </mxCell>
      </root>
    </mxGraphModel>
  </diagram>
</mxfile>
